<svg version="1.1" id="레이어_1" xmlns="http://www.w3.org/2000/svg" xmlns:xlink="http://www.w3.org/1999/xlink" x="0px"
	 y="0px" viewBox="0 0 100 100" style="enable-background:new 0 0 100 100;fill:#fff" xml:space="preserve">
<path d="M63.18,20.41h-6.61h-2.33c-5.3,0-9.6,4.3-9.6,9.6v9.96h-7.18c-0.59,0-1.06,0.47-1.06,1.06v8.82c0,0.59,0.47,1.06,1.06,1.06
	h7.18v16.62v9.98v1.17c0,0.61,0.49,1.1,1.1,1.1h8.79c0.61,0,1.1-0.49,1.1-1.1v-1.17h0.02v-26.6h7.11c0.59,0,1.06-0.47,1.06-1.06
	v-8.82c0-0.59-0.47-1.06-1.06-1.06h-7.11v-8.54l7.53-0.02c0.59,0,1.07-0.48,1.07-1.07v-8.86C64.24,20.89,63.77,20.41,63.18,20.41z"
	/>
</svg>