<svg version="1.1" id="레이어_1" xmlns="http://www.w3.org/2000/svg" xmlns:xlink="http://www.w3.org/1999/xlink" x="0px"
	 y="0px" viewBox="0 0 100 100" style="enable-background:new 0 0 100 100;fill:#fff" xml:space="preserve">
<path d="M51.09,68.05c-9.79,0-17.75-7.96-17.75-17.75c0-9.79,7.96-17.75,17.75-17.75c9.79,0,17.75,7.96,17.75,17.75
	C68.84,60.08,60.88,68.05,51.09,68.05z M51.09,40.35c-5.48,0-9.94,4.46-9.94,9.94c0,5.48,4.46,9.94,9.94,9.94
	c5.48,0,9.94-4.46,9.94-9.94C61.03,44.81,56.57,40.35,51.09,40.35z"/>
<path d="M71.33,33.05c0,2.3-1.86,4.17-4.16,4.17c-2.3,0-4.16-1.87-4.16-4.17s1.86-4.16,4.16-4.16
	C69.47,28.89,71.33,30.75,71.33,33.05z"/>
<path d="M37.69,83.35c-11.37,0-20.62-9.25-20.62-20.62V37.47c0-11.37,9.25-20.62,20.62-20.62h25.25c11.37,0,20.62,9.25,20.62,20.62
	v25.25c0,11.37-9.25,20.62-20.62,20.62H37.69z M37.69,24.66c-7.07,0-12.81,5.75-12.81,12.81v25.25c0,7.06,5.75,12.81,12.81,12.81
	h25.25c7.07,0,12.81-5.75,12.81-12.81V37.47c0-7.07-5.75-12.81-12.81-12.81H37.69z"/>
</svg>