<svg version="1.1" id="레이어_1" xmlns="http://www.w3.org/2000/svg" xmlns:xlink="http://www.w3.org/1999/xlink" x="0px"
	 y="0px" viewBox="0 0 100 100" style="enable-background:new 0 0 100 100;" xml:space="preserve">
<style type="text/css">
	.st0{fill:url(#SVGID_1_);}
	.st1{fill:#FFFFFF;}
</style>
<g>
	<linearGradient id="SVGID_1_" gradientUnits="userSpaceOnUse" x1="31.0051" y1="82.6321" x2="31.0051" y2="17.6321">
		<stop  offset="0.4462" style="stop-color:#FFFFFF"/>
		<stop  offset="1" style="stop-color:#252728"/>
	</linearGradient>
	<path class="st0" d="M39.26,74.38c0,4.56-3.69,8.25-8.25,8.25l0,0c-4.56,0-8.25-3.69-8.25-8.25v-48.5c0-4.56,3.69-8.25,8.25-8.25
		l0,0c4.56,0,8.25,3.69,8.25,8.25V74.38z"/>
	<path class="st1" d="M73.99,42.94c3.87,2.41,5.05,7.5,2.64,11.37l0,0c-2.41,3.87-7.5,5.05-11.36,2.64L26.64,32.89
		c-3.87-2.41-5.05-7.5-2.64-11.37l0,0c2.41-3.87,7.5-5.05,11.36-2.64L73.99,42.94z"/>
	<path class="st1" d="M73.99,57.26c3.87-2.41,5.05-7.5,2.64-11.37l0,0c-2.41-3.87-7.5-5.05-11.36-2.64L26.64,67.31
		c-3.87,2.41-5.05,7.5-2.64,11.37l0,0c2.41,3.87,7.5,5.05,11.36,2.64L73.99,57.26z"/>
</g>
</svg>
