<svg version="1.1" id="레이어_1" xmlns="http://www.w3.org/2000/svg" xmlns:xlink="http://www.w3.org/1999/xlink" x="0px"
	 y="0px" viewBox="0 0 100 100" style="enable-background:new 0 0 100 100;fill:#fff" xml:space="preserve">
<path d="M77.92,29.45c0,0,4.86-6.55,3.17-6.55c-1.69,0-6.55,4.44-8.24,4.44c-1.69,0-4.45-5.22-11.68-4.89
	c-7.42,0.34-10.93,4.19-12.63,10.17c-1.32,4.65-0.45,7.16-8.3,4.97c-5.39-1.51-13.9-8.56-14.95-9.62c-1.06-1.06-4.92-4.87-5.89-1.8
	c-0.94,2.99-0.87,10.04,3.14,14.9c4.02,4.86-1.4,0.41-3.04,0.1c-1.96-0.37,1.09,9.96,5.79,12.37c3.84,1.96-1.9,1.88-2.96,1.24
	c-1.06-0.63,0.29,4.02,4.84,6.26c3.42,1.69,9.96,2.64,8.06,4.54c-1.9,1.9-11.46,3.29-14.64,2.96c-5.16-0.54-4.95,1.14-1.6,3.33
	c4.27,2.8,15.48,6.21,28.5,4.07c7.99-1.31,30.86-12.26,28.75-38.68c0,0,8.99-8.24,7.4-8.46C82.32,28.64,77.92,29.45,77.92,29.45z"/>
</svg>